<svg width="99" height="100" viewBox="0 0 99 100" fill="none" xmlns="http://www.w3.org/2000/svg">
<path d="M24.5587 0.00110088C21.5195 0.0799551 19.054 2.59083 19.054 5.64124V8.23512H9.44182C4.24073 8.23512 0 12.4725 0 17.6727V90.5666C0 95.7668 4.23658 100 9.44182 100L89.4542 99.9958C94.6553 99.9958 98.8836 95.7626 98.8836 90.5624V34.501C98.9584 34.3142 99 34.115 99 33.9117C98.9958 33.7166 98.9543 33.5298 98.8836 33.3514V17.6674C98.8836 12.4673 94.6595 8.22987 89.4542 8.22987H79.842V5.64014C79.842 2.5399 77.2852 0 74.1794 0H71.5435C68.4378 0 65.8809 2.5399 65.8809 5.64014L65.8851 8.23402H32.9993V5.64014C32.9993 2.5399 30.4549 0 27.3491 0H24.7049H24.5594L24.5587 0.00110088ZM24.7042 3.1262H27.3484C28.7744 3.1262 29.8679 4.21766 29.8679 5.64124V13.9458C29.8679 15.3693 28.7745 16.4608 27.3484 16.4608H24.7042C23.2782 16.4608 22.1847 15.3694 22.1847 13.9458L22.1888 5.64124C22.1888 4.21777 23.2822 3.1262 24.7083 3.1262H24.7042ZM71.5434 3.1262H74.1793C75.6053 3.1262 76.7071 4.21766 76.7071 5.64124V13.9458C76.7071 15.3693 75.6053 16.4608 74.1793 16.4608H71.5434C70.1174 16.4608 69.0115 15.3694 69.0115 13.9458L69.0156 9.999C69.0239 9.9326 69.0281 9.86204 69.0281 9.79564C69.0239 9.75829 69.0198 9.72094 69.0156 9.68774V5.64127C69.0156 4.2178 70.1216 3.12623 71.5476 3.12623L71.5434 3.1262ZM9.44163 11.3644H19.0538V13.9458C19.0538 17.046 21.5982 19.5859 24.704 19.5859H27.3482C30.4539 19.5859 32.9983 17.046 32.9983 13.9458V11.3644H65.8841V13.9458C65.8841 17.046 68.441 19.5859 71.5467 19.5859H74.1827C77.2884 19.5859 79.8452 17.046 79.8452 13.9458L79.8411 11.3644H89.4533C92.9706 11.3644 95.7645 14.145 95.7645 17.6727V32.3515H3.13012V17.6684C3.13012 14.1408 5.91984 11.3601 9.4413 11.3601L9.44163 11.3644ZM3.13044 35.481H95.7648V90.5671C95.7648 94.0948 92.9751 96.8754 89.4536 96.8754L9.4412 96.8713C5.92389 96.8713 3.13002 94.0906 3.13002 90.563L3.13044 35.481ZM18.7378 44.8937C15.9274 44.8937 13.6199 47.2095 13.6199 50.015V58.0873C13.6199 60.8928 15.9274 63.2003 18.7378 63.2003H26.8285C29.639 63.2003 31.9589 60.8969 31.9589 58.0873V50.0109C31.9589 47.2054 29.639 44.8896 26.8285 44.8896L18.7378 44.8937ZM45.5122 44.8937C42.7018 44.8937 40.3901 47.2095 40.3901 50.015V58.0873C40.3901 60.8928 42.6976 63.2003 45.5122 63.2003H53.5987C56.4092 63.2003 58.7292 60.8969 58.7292 58.0873V50.0109C58.7292 47.2054 56.4092 44.8896 53.5987 44.8896L45.5122 44.8937ZM72.2824 44.8937C69.4719 44.8937 67.1603 47.2095 67.1603 50.015V58.0873C67.1603 60.8928 69.4678 63.2003 72.2824 63.2003H80.3689C83.1794 63.2003 85.5034 60.8969 85.5034 58.0873V50.0109C85.5034 47.2054 83.1835 44.8896 80.3689 44.8896L72.2824 44.8937ZM18.741 48.0147H26.8317C27.9625 48.0147 28.8315 48.8821 28.8315 50.0109V58.0831C28.8315 59.212 27.9625 60.0711 26.8317 60.0711H18.741C17.6102 60.0711 16.7537 59.212 16.7537 58.0831V50.0109C16.7537 48.882 17.6102 48.0147 18.741 48.0147ZM45.5154 48.0147H53.6019C54.7328 48.0147 55.6017 48.8821 55.6017 50.0109V58.0831C55.6017 59.212 54.7328 60.0711 53.6019 60.0711H45.5154C44.3846 60.0711 43.5281 59.212 43.5281 58.0831V50.0109C43.5281 48.882 44.3846 48.0147 45.5154 48.0147ZM72.2856 48.0147H80.3721C81.5029 48.0147 82.3719 48.8821 82.3719 50.0109V58.0831C82.3719 59.212 81.5029 60.0711 80.3721 60.0711H72.2856C71.1547 60.0711 70.2983 59.212 70.2983 58.0831V50.0109C70.2983 48.882 71.1547 48.0147 72.2856 48.0147ZM18.74 69.1097C15.9295 69.1097 13.622 71.4255 13.622 74.231V82.3032C13.622 85.1088 15.9295 87.4163 18.74 87.4163H26.8306C29.6411 87.4163 31.961 85.1129 31.961 82.3032V74.231C31.961 71.4255 29.6411 69.1097 26.8306 69.1097H18.74ZM45.5144 69.1097C42.7039 69.1097 40.3923 71.4255 40.3923 74.231V82.3032C40.3923 85.1088 42.6997 87.4163 45.5144 87.4163H53.6009C56.4113 87.4163 58.7313 85.1129 58.7313 82.3032V74.231C58.7313 71.4255 56.4113 69.1097 53.6009 69.1097H45.5144ZM72.2845 69.1097C69.474 69.1097 67.1624 71.4255 67.1624 74.231V82.3032C67.1624 85.1088 69.4699 87.4163 72.2845 87.4163H80.371C83.1815 87.4163 85.5056 85.1129 85.5056 82.3032V74.231C85.5056 71.4255 83.1856 69.1097 80.371 69.1097H72.2845ZM18.7389 72.2348H26.8296C27.9604 72.2348 28.8293 73.1022 28.8293 74.231V82.3032C28.8293 83.4321 27.9604 84.2912 26.8296 84.2912H18.7389C17.6081 84.2912 16.7516 83.4321 16.7516 82.3032V74.231C16.7516 73.1022 17.608 72.2348 18.7389 72.2348ZM45.5133 72.2348H53.5998C54.7307 72.2348 55.5996 73.1022 55.5996 74.231V82.3032C55.5996 83.4321 54.7306 84.2912 53.5998 84.2912H45.5133C44.3825 84.2912 43.526 83.4321 43.526 82.3032V74.231C43.526 73.1022 44.3824 72.2348 45.5133 72.2348ZM72.2835 72.2348H80.3699C81.5008 72.2348 82.3697 73.1022 82.3697 74.231V82.3032C82.3697 83.4321 81.5008 84.2912 80.3699 84.2912H72.2835C71.1526 84.2912 70.2961 83.4321 70.2961 82.3032V74.231C70.2961 73.1022 71.1526 72.2348 72.2835 72.2348Z" fill="#2A157B"/>
</svg>
