<svg width="273" height="191" viewBox="0 0 273 191" fill="none" xmlns="http://www.w3.org/2000/svg">
<path fill-rule="evenodd" clip-rule="evenodd" d="M113.24 20.748C122.02 11.608 134.24 5.948 147.74 5.948C165.74 5.948 181.34 15.948 189.74 30.848C197.196 27.5147 205.273 25.7939 213.44 25.798C245.84 25.798 272.14 52.298 272.14 84.998C272.14 117.698 245.84 144.198 213.44 144.198C209.48 144.198 205.62 143.8 201.84 143.048C194.49 156.148 180.44 165.048 164.44 165.048C157.926 165.061 151.495 163.583 145.64 160.728C138.19 178.228 120.84 190.528 100.64 190.528C79.54 190.528 61.64 177.228 54.74 158.528C51.669 159.176 48.5387 159.502 45.4 159.5C20.3 159.5 0 138.9 0 113.6C0 96.6 9.14 81.8 22.7 73.8C19.8232 67.173 18.3425 60.0245 18.35 52.8C18.35 23.6 42.05 0 71.25 0C88.35 0 103.65 8.15 113.25 20.8" fill="#00A1E0"/>
</svg>
