<svg width="99" height="100" viewBox="0 0 99 100" fill="none" xmlns="http://www.w3.org/2000/svg">
<path d="M56.9669 0C37.9869 0 21.257 13.07 16.517 31.28H1.97696C1.21696 31.28 0.526962 31.71 0.196962 32.4C-0.133038 33.08 -0.0430425 33.89 0.426958 34.48L6.23696 41.83L0.426958 49.18C-0.0430425 49.77 -0.133038 50.58 0.196962 51.26C0.526962 51.94 1.21696 52.38 1.97696 52.38H16.507C19.157 62.63 25.657 71.53 34.627 77.18L29.737 89.46C28.977 91.37 29.007 93.47 29.817 95.36C30.627 97.25 32.137 98.7 34.037 99.46C34.967 99.83 35.927 100 36.867 100C39.927 100 42.827 98.16 44.027 95.15L48.897 82.88C51.527 83.4 54.227 83.68 56.957 83.68C59.687 83.68 62.397 83.4 65.017 82.88L69.917 95.16C71.117 98.17 74.017 100 77.087 100C78.027 100 78.987 99.83 79.917 99.46C83.847 97.89 85.777 93.41 84.207 89.47L79.327 77.18C91.367 69.56 98.797 56.18 98.797 41.85C98.797 18.78 80.027 0.00999451 56.957 0.00999451L56.9669 0ZM6.05696 48.43L10.307 43.06C10.877 42.34 10.877 41.33 10.307 40.61L6.05696 35.24H21.197L24.687 41.84L21.197 48.44H6.05696V48.43ZM41.087 91.86C41.087 91.86 41.077 91.9 41.067 91.92L40.367 93.69C39.597 95.61 37.417 96.54 35.507 95.78C34.577 95.41 33.857 94.7 33.457 93.79C33.057 92.87 33.047 91.85 33.417 90.92L38.117 79.14C40.347 80.28 42.667 81.2 45.057 81.91L41.107 91.86H41.087ZM80.537 90.93C81.307 92.84 80.3669 95.02 78.4669 95.78C76.5469 96.54 74.367 95.6 73.597 93.68L68.907 81.91C71.297 81.2 73.627 80.28 75.857 79.14L80.537 90.92V90.93ZM75.897 74.65C72.727 76.48 69.337 77.83 65.787 78.67C60.107 80.06 53.857 80.07 48.147 78.67C44.607 77.84 41.227 76.49 38.067 74.65C29.557 69.76 23.337 61.72 20.647 52.37H22.387C23.117 52.37 23.787 51.97 24.137 51.32L25.647 48.47C28.717 62.96 41.597 73.87 56.987 73.87C74.657 73.87 89.027 59.49 89.027 41.83C89.027 24.17 74.647 9.78999 56.987 9.78999C41.597 9.78999 28.717 20.7 25.647 35.19L24.137 32.34C23.797 31.69 23.127 31.29 22.387 31.29H20.607C25.237 15.32 40.137 3.95999 56.977 3.95999C77.867 3.95999 94.867 20.96 94.867 41.85C94.867 55.35 87.607 67.92 75.907 74.66L75.897 74.65ZM56.977 39.85H45.937C46.877 34.6 51.457 30.61 56.977 30.61C63.167 30.61 68.197 35.64 68.197 41.83C68.197 48.02 63.167 53.05 56.977 53.05C51.467 53.05 46.877 49.05 45.937 43.81H56.977C58.067 43.81 58.957 42.93 58.957 41.83C58.957 40.73 58.077 39.85 56.977 39.85ZM56.977 57C65.347 57 72.147 50.2 72.147 41.83C72.147 33.46 65.347 26.66 56.977 26.66C49.287 26.66 42.927 32.42 41.947 39.86H28.987C30.007 25.29 42.157 13.75 56.977 13.75C71.797 13.75 85.067 26.35 85.067 41.84C85.067 57.33 72.467 69.93 56.977 69.93C41.487 69.93 30.007 58.38 28.987 43.82H41.947C42.917 51.25 49.277 57.01 56.977 57.01V57Z" fill="#236CFF"/>
</svg>
