<svg width="67" height="22" viewBox="0 0 67 22" fill="none" xmlns="http://www.w3.org/2000/svg">
<path d="M19 2C19.6459 2 20.2525 2.3123 20.6279 2.83789L25.6279 9.83789C26.1242 10.5331 26.1242 11.4669 25.6279 12.1621L20.6279 19.1621C20.2525 19.6877 19.6459 20 19 20H4C2.89543 20 2 19.1046 2 18V17.9893C2.00003 17.5604 2.13812 17.1424 2.39355 16.7979L6.61621 11.1025C6.63147 11.0819 6.64737 11.0455 6.64746 10.9951C6.64746 10.9699 6.64352 10.9477 6.6377 10.9297L6.61621 10.8867L2.39355 5.19141C1.94359 4.58446 1.8741 3.77543 2.21387 3.10059C2.55365 2.42581 3.2445 2 4 2H19Z" fill="#f4f2ec" stroke="#236CFF" stroke-width="4" stroke-linejoin="round"/>
<path d="M26 11H62" stroke="#236CFF" stroke-width="4" stroke-linecap="round"/>
<path d="M61.0909 7L65 11L61 15" stroke="#236CFF" stroke-width="4" stroke-linecap="round" stroke-linejoin="round"/>
</svg>
