<svg width="70" height="70" viewBox="0 0 70 70" fill="none" xmlns="http://www.w3.org/2000/svg">
<path d="M67.9528 29.1648C57.3771 29.1648 46.9969 18.7112 46.9969 8.06068C46.9969 6.9211 46.0812 5.99902 44.9497 5.99902C43.8181 5.99902 42.9025 6.92113 42.9025 8.06068C42.9025 18.7112 32.5223 29.1648 21.9466 29.1648C20.815 29.1648 19.8994 30.087 19.8994 31.2265C19.8994 32.3661 20.815 33.2882 21.9466 33.2882C32.5223 33.2882 42.9025 43.7418 42.9025 54.3882C42.9025 55.5278 43.8181 56.4499 44.9497 56.4499C46.0812 56.4499 46.9969 55.5277 46.9969 54.3882C46.9969 43.7377 57.3771 33.2882 67.9528 33.2882C69.0844 33.2882 69.9999 32.3661 69.9999 31.2265C69.9999 30.0869 69.0843 29.1648 67.9528 29.1648ZM44.9538 45.1025C42.2669 39.0625 37.1729 33.9324 31.1753 31.2265C37.1729 28.5206 42.2669 23.3906 44.9538 17.3505C47.6407 23.3906 52.7347 28.5206 58.7323 31.2265C52.7347 33.9324 47.6407 39.0625 44.9538 45.1025Z" fill="#236CFF"/>
<path d="M4.16143 9.0681C3.02989 9.0681 2.11426 9.99018 2.11426 11.1298C2.11426 12.2693 3.02986 13.1914 4.16143 13.1914H11.1187V20.1938C11.1187 21.3334 12.0343 22.2555 13.1658 22.2555C14.2974 22.2555 15.213 21.3334 15.213 20.1938V13.1914H22.1662C23.2978 13.1914 24.2134 12.2693 24.2134 11.1298C24.2134 9.99021 23.2978 9.0681 22.1662 9.0681H15.213V2.06166C15.213 0.922108 14.2974 0 13.1658 0C12.0343 0 11.1187 0.922077 11.1187 2.06166V9.0681H4.16143Z" fill="#2A157B"/>
<path d="M11.6914 46.4521C12.8229 46.4522 13.7382 47.3742 13.7383 48.5137C13.7383 52.3028 17.5734 56.1641 21.3359 56.1641C22.4673 56.1643 23.3828 57.0872 23.3828 58.2266C23.3826 59.3658 22.4672 60.2878 21.3359 60.2881C17.5735 60.2881 13.7383 64.1494 13.7383 67.9385C13.7383 69.078 12.8229 70 11.6914 70C10.5599 70 9.64453 69.0781 9.64453 67.9385C9.64448 64.1494 5.80936 60.2881 2.04688 60.2881C0.915596 60.2879 0.000208381 59.3658 0 58.2266C0 57.0871 0.915437 56.1642 2.04688 56.1641C5.80938 56.1641 9.64453 52.3028 9.64453 48.5137C9.6446 47.3742 10.5599 46.4521 11.6914 46.4521ZM11.6914 54.8037C10.7838 56.1365 9.61644 57.3085 8.29297 58.2266C9.61643 59.1406 10.7798 60.3166 11.6914 61.6494C12.5989 60.3167 13.7665 59.1446 15.0898 58.2266C13.7664 57.3125 12.603 56.1365 11.6914 54.8037Z" fill="#236CFF"/>
</svg>
