<svg width="300" height="300" viewBox="0 0 300 300" fill="none" xmlns="http://www.w3.org/2000/svg">
<path d="M150.757 62.2314C132.923 62.2314 118.523 76.6305 118.523 94.4647C118.523 97.276 120.711 99.1584 123.217 99.1584C126.028 99.1584 127.911 96.9704 127.911 94.4647C127.911 81.9481 137.922 71.9374 150.438 71.9374C162.637 71.9374 172.965 82.2661 172.965 94.4647C172.965 101.664 169.836 107.922 164.201 112.298C152.308 121.368 145.744 134.52 145.744 148.603V149.849C145.744 152.661 147.932 154.543 150.438 154.543C152.944 154.543 155.132 152.355 155.132 149.849V148.603C155.132 137.651 160.449 127.322 169.836 119.817C177.977 113.559 182.353 104.489 182.353 94.1605C182.988 76.9381 168.286 62.2314 150.757 62.2314Z" fill="#236CFF"/>
<path d="M256.523 190.526V55.9734C256.523 38.7632 242.442 25 225.549 25H75.9734C59.0811 25 45 38.7632 45 55.9734V190.526C45 207.737 58.7632 221.5 75.9734 221.5H152.637L207.716 273.753C208.658 274.694 209.904 275 211.163 275C211.787 275 212.728 274.682 213.351 274.377C215.234 273.435 216.163 271.565 215.857 269.365L209.599 221.183H225.245C242.443 221.5 256.523 207.419 256.523 190.526ZM204.269 211.807C203.023 211.807 201.458 212.43 200.822 213.372C199.881 214.313 199.575 215.877 199.575 217.124L204.587 257.484L157.65 213.053C156.709 212.112 155.768 211.806 154.521 211.806H75.9733C64.0801 211.806 54.6927 202.101 54.6927 190.526V55.9727C54.6927 44.0795 64.0801 34.6921 75.9733 34.6921H225.549C237.442 34.6921 246.83 44.0795 246.83 55.9727V190.526C246.83 202.419 237.124 211.806 225.549 211.806L204.269 211.807Z" fill="#236CFF"/>
<path d="M150.754 167.998C146.379 167.998 142.932 171.445 142.932 176.139C142.932 180.515 146.379 183.962 150.754 183.962C155.13 183.962 158.895 180.515 158.895 176.139C158.577 171.433 155.131 167.998 150.754 167.998Z" fill="#236CFF"/>
</svg>
